<?xml version="1.0" encoding="UTF-8" standalone="no"?>
<!DOCTYPE svg PUBLIC "-//W3C//DTD SVG 1.1//EN" "http://www.w3.org/Graphics/SVG/1.1/DTD/svg11.dtd">
<svg version="1.1" xmlns="http://www.w3.org/2000/svg" xmlns:xlink="http://www.w3.org/1999/xlink" preserveAspectRatio="xMidYMid meet" viewBox="10.716546296361447 -0.06708926274786564 456.1834537036385 86.22841304380024" width="451.61" height="81.97"><defs><path d="M78.86 45.11C78.86 60.79 66.15 73.51 50.47 73.51C50.47 73.51 50.47 73.51 50.47 73.51C34.79 73.51 22.09 60.79 22.09 45.11C22.09 45.11 22.09 45.11 22.09 45.11C22.1 33.14 29.64 22.46 40.92 18.43C40.92 17.45 40.92 9.64 40.92 8.66C24.11 12.89 12.32 27.98 12.29 45.31C12.29 66.21 29.24 83.16 50.14 83.16C50.14 83.16 50.14 83.16 50.14 83.16C71.05 83.16 88 66.21 88 45.31C88 45.31 88 45.31 88 45.31C87.97 27.81 75.96 12.61 58.94 8.55C58.94 8.55 58.94 17.13 58.94 18.08C70.77 21.77 78.84 32.72 78.86 45.11Z" id="c2hvxwaoH1"></path><path d="M78.86 45.11C78.86 60.79 66.15 73.51 50.47 73.51C50.47 73.51 50.47 73.51 50.47 73.51C34.79 73.51 22.09 60.79 22.09 45.11C22.09 45.11 22.09 45.11 22.09 45.11C22.1 33.14 29.64 22.46 40.92 18.43C40.92 17.45 40.92 9.64 40.92 8.66C24.11 12.89 12.32 27.98 12.29 45.31C12.29 66.21 29.24 83.16 50.14 83.16C50.14 83.16 50.14 83.16 50.14 83.16C71.05 83.16 88 66.21 88 45.31C88 45.31 88 45.31 88 45.31C87.97 27.81 75.96 12.61 58.94 8.55C58.94 8.55 58.94 17.13 58.94 18.08C70.77 21.77 78.84 32.72 78.86 45.11Z" id="b41709cRb"></path><path d="M53.94 1.19C53.94 15.85 53.94 24 53.94 25.63C53.94 25.63 53.94 25.63 53.94 25.63C49.13 25.63 46.45 25.63 45.92 25.63C45.92 25.63 45.92 25.63 45.92 25.63C45.92 10.97 45.92 2.82 45.92 1.19C45.92 1.19 45.92 1.19 45.92 1.19C50.73 1.19 53.4 1.19 53.94 1.19C53.94 1.19 53.94 1.19 53.94 1.19Z" id="cDN072agG"></path><path d="M53.94 1.19C53.94 15.85 53.94 24 53.94 25.63C53.94 25.63 53.94 25.63 53.94 25.63C49.13 25.63 46.45 25.63 45.92 25.63C45.92 25.63 45.92 25.63 45.92 25.63C45.92 10.97 45.92 2.82 45.92 1.19C45.92 1.19 45.92 1.19 45.92 1.19C50.73 1.19 53.4 1.19 53.94 1.19C53.94 1.19 53.94 1.19 53.94 1.19Z" id="bd5mWcSp7"></path><path d="M56.89 39.25L49.93 62.29L49.93 62.29L42.85 39.25L39.43 62.26L35.62 62.26L42.91 26.23L42.91 26.23L49.96 52.58L56.94 26.23L56.94 26.23L64.21 62.26L60.39 62.26L56.89 39.25Z" id="bv3GUkkcj"></path><path d="M56.89 39.25L49.93 62.29L49.93 62.29L42.85 39.25L39.43 62.26L35.62 62.26L42.91 26.23L42.91 26.23L49.96 52.58L56.94 26.23L56.94 26.23L64.21 62.26L60.39 62.26L56.89 39.25Z" id="aFudbKoPV"></path><path d="M67.39 59.29L71.97 62.29L60.54 62.29L60.54 59.29L67.39 59.29Z" id="f5EEJmxjc"></path><path d="M67.39 59.29L71.97 62.29L60.54 62.29L60.54 59.29L67.39 59.29Z" id="a4GZYS48cG"></path><path d="M38.91 59.29L38.91 62.29L31.9 62.29L27.9 59.29L38.91 59.29Z" id="f17YN14M7R"></path><path d="M38.91 59.29L38.91 62.29L31.9 62.29L27.9 59.29L38.91 59.29Z" id="a1L2h7904v"></path><path d="M117.3 44.8L132.2 27L137.8 27L137.8 63L133.8 63L133.8 31.6L117.3 51.2L100.8 31.6L100.8 63L96.8 63L96.8 27L102.3 27L117.3 44.8Z" id="c1CkD3iQJY"></path><path d="M166.82 34.01L166.97 34.02L167.12 34.03L167.28 34.04L167.43 34.06L167.57 34.09L167.72 34.11L167.87 34.14L168.01 34.18L168.15 34.21L168.29 34.25L168.43 34.3L168.57 34.34L168.7 34.4L168.84 34.45L168.97 34.51L169.1 34.57L169.23 34.63L169.36 34.7L169.49 34.78L169.61 34.85L169.74 34.93L169.86 35.01L169.98 35.1L170.1 35.19L170.22 35.28L170.34 35.38L170.46 35.48L170.57 35.58L170.69 35.69L170.8 35.8L170.91 35.91L171.02 36.03L171.12 36.14L171.22 36.26L171.32 36.38L171.41 36.5L171.5 36.62L171.59 36.74L171.67 36.86L171.75 36.98L171.82 37.11L171.9 37.23L171.97 37.36L172.03 37.49L172.09 37.62L172.15 37.75L172.2 37.88L172.26 38.01L172.3 38.15L172.35 38.28L172.39 38.42L172.42 38.56L172.46 38.7L172.49 38.84L172.51 38.98L172.54 39.12L172.56 39.26L172.57 39.41L172.58 39.56L172.59 39.7L172.6 39.85L172.6 40L172.6 63L149.1 63L148.94 63L148.78 62.99L148.63 62.98L148.48 62.97L148.32 62.96L148.17 62.94L148.03 62.91L147.88 62.89L147.73 62.86L147.59 62.82L147.45 62.79L147.31 62.75L147.17 62.7L147.03 62.66L146.9 62.6L146.76 62.55L146.63 62.49L146.5 62.43L146.37 62.37L146.24 62.3L146.11 62.22L145.99 62.15L145.86 62.07L145.74 61.99L145.62 61.9L145.5 61.81L145.38 61.72L145.26 61.62L145.14 61.52L145.03 61.42L144.91 61.31L144.8 61.2L144.69 61.09L144.58 60.97L144.48 60.86L144.38 60.74L144.28 60.62L144.19 60.5L144.1 60.38L144.01 60.26L143.93 60.14L143.85 60.02L143.78 59.89L143.7 59.77L143.63 59.64L143.57 59.51L143.51 59.38L143.45 59.25L143.4 59.12L143.34 58.99L143.3 58.85L143.25 58.72L143.21 58.58L143.18 58.44L143.14 58.3L143.11 58.16L143.09 58.02L143.06 57.88L143.04 57.74L143.03 57.59L143.02 57.44L143.01 57.3L143 57.15L143 57L143 46.5L168.4 46.5L168.4 40L168.4 39.95L168.4 39.91L168.39 39.86L168.39 39.82L168.39 39.77L168.38 39.73L168.37 39.69L168.36 39.64L168.35 39.6L168.34 39.56L168.33 39.52L168.32 39.47L168.3 39.43L168.29 39.39L168.27 39.35L168.25 39.31L168.23 39.27L168.21 39.23L168.19 39.19L168.17 39.16L168.14 39.12L168.12 39.08L168.09 39.04L168.06 39L168.03 38.96L168 38.93L167.97 38.89L167.94 38.85L167.91 38.81L167.87 38.78L167.84 38.74L167.8 38.7L167.76 38.66L167.72 38.63L167.69 38.59L167.65 38.56L167.61 38.53L167.57 38.5L167.54 38.47L167.5 38.44L167.46 38.41L167.42 38.38L167.38 38.36L167.34 38.33L167.31 38.31L167.27 38.29L167.23 38.27L167.19 38.25L167.15 38.23L167.11 38.21L167.07 38.2L167.03 38.18L166.98 38.17L166.94 38.16L166.9 38.15L166.86 38.14L166.81 38.13L166.77 38.12L166.73 38.11L166.68 38.11L166.64 38.11L166.59 38.1L166.55 38.1L166.5 38.1L143 38.1L143 34L166.5 34L166.66 34L166.82 34.01ZM147.1 57L147.1 57.13L147.12 57.26L147.14 57.39L147.18 57.51L147.22 57.63L147.28 57.75L147.34 57.86L147.42 57.97L147.5 58.08L147.6 58.19L147.7 58.3L147.81 58.4L147.92 58.5L148.03 58.58L148.15 58.66L148.26 58.72L148.39 58.78L148.52 58.82L148.65 58.86L148.79 58.88L148.94 58.9L149.1 58.9L168.4 58.9L168.4 50.5L147.1 50.5L147.1 57Z" id="aHPKAyd3j"></path><path d="M177.7 24.5L181.8 24.5C181.8 44 181.8 54.83 181.8 57C181.8 57.5 182 57.9 182.4 58.3C182.8 58.7 183.2 58.9 183.8 58.9C184.13 58.9 185.76 58.9 188.7 58.9L188.7 63C185.76 63 184.13 63 183.8 63C182.1 63 180.7 62.4 179.5 61.2C178.3 60 177.7 58.6 177.7 57C177.7 52.67 177.7 41.83 177.7 24.5Z" id="f5GGXtBbuK"></path><path d="M228.9 31C210.96 31 200.99 31 199 31C198.5 31 198 31.2 197.6 31.6C197.2 32 197.1 32.5 197.1 33C197.1 35.4 197.1 54.6 197.1 57C197.1 57.5 197.2 58 197.6 58.4C198 58.8 198.5 59 199 59C200.99 59 210.96 59 228.9 59L228.9 63C210.96 63 200.99 63 199 63C197.3 63 195.9 62.4 194.8 61.2C193.6 60.1 193 58.7 193 57C193 54.6 193 35.4 193 33C193 31.3 193.6 29.9 194.8 28.8C195.9 27.6 197.3 27 199 27C200.99 27 210.96 27 228.9 27L228.9 31Z" id="asQJskzub"></path><path d="M257.78 34.02L258.01 34.04L258.24 34.07L258.46 34.1L258.69 34.15L258.9 34.2L259.12 34.26L259.33 34.33L259.54 34.41L259.74 34.49L259.94 34.59L260.14 34.69L260.33 34.8L260.52 34.92L260.71 35.04L260.89 35.18L261.07 35.32L261.25 35.47L261.43 35.63L261.6 35.8L261.77 35.97L261.93 36.15L262.08 36.33L262.22 36.51L262.36 36.69L262.48 36.88L262.6 37.07L262.71 37.26L262.81 37.45L262.91 37.65L262.99 37.85L263.07 38.05L263.14 38.26L263.2 38.47L263.25 38.68L263.3 38.89L263.33 39.11L263.36 39.33L263.38 39.55L263.4 39.77L263.4 40L263.4 57L263.4 57.23L263.38 57.45L263.36 57.67L263.33 57.89L263.3 58.11L263.25 58.32L263.2 58.53L263.14 58.74L263.07 58.95L262.99 59.15L262.91 59.35L262.81 59.55L262.71 59.74L262.6 59.93L262.48 60.12L262.36 60.31L262.22 60.49L262.08 60.67L261.93 60.85L261.77 61.03L261.6 61.2L261.43 61.37L261.25 61.53L261.07 61.68L260.89 61.82L260.71 61.96L260.52 62.08L260.33 62.2L260.14 62.31L259.94 62.41L259.74 62.51L259.54 62.59L259.33 62.67L259.12 62.74L258.9 62.8L258.69 62.85L258.46 62.9L258.24 62.93L258.01 62.96L257.78 62.98L257.54 63L257.3 63L239.9 63L239.66 63L239.42 62.98L239.19 62.96L238.96 62.93L238.74 62.9L238.51 62.85L238.3 62.8L238.08 62.74L237.87 62.67L237.66 62.59L237.46 62.51L237.26 62.41L237.06 62.31L236.87 62.2L236.68 62.08L236.49 61.96L236.31 61.82L236.13 61.68L235.95 61.53L235.77 61.37L235.6 61.2L235.43 61.03L235.28 60.85L235.13 60.67L234.99 60.49L234.86 60.31L234.74 60.12L234.63 59.93L234.52 59.74L234.43 59.55L234.34 59.35L234.26 59.15L234.19 58.95L234.13 58.74L234.07 58.53L234.03 58.32L233.99 58.11L233.96 57.89L233.93 57.67L233.91 57.45L233.9 57.23L233.9 57L233.9 40L233.9 39.77L233.91 39.55L233.93 39.33L233.96 39.11L233.99 38.89L234.03 38.68L234.07 38.47L234.13 38.26L234.19 38.05L234.26 37.85L234.34 37.65L234.43 37.45L234.52 37.26L234.63 37.07L234.74 36.88L234.86 36.69L234.99 36.51L235.13 36.33L235.28 36.15L235.43 35.97L235.6 35.8L235.77 35.63L235.95 35.47L236.13 35.32L236.31 35.18L236.49 35.04L236.68 34.92L236.87 34.8L237.06 34.69L237.26 34.59L237.46 34.49L237.66 34.41L237.87 34.33L238.08 34.26L238.3 34.2L238.51 34.15L238.74 34.1L238.96 34.07L239.19 34.04L239.42 34.02L239.66 34L239.9 34L257.3 34L257.54 34L257.78 34.02ZM239.81 38.1L239.71 38.11L239.62 38.12L239.53 38.14L239.43 38.16L239.34 38.18L239.25 38.21L239.16 38.25L239.07 38.29L238.99 38.33L238.9 38.38L238.82 38.44L238.73 38.5L238.65 38.56L238.58 38.63L238.5 38.7L238.43 38.78L238.36 38.85L238.31 38.93L238.25 39L238.21 39.08L238.17 39.16L238.13 39.23L238.1 39.31L238.07 39.39L238.05 39.47L238.04 39.56L238.02 39.64L238.01 39.73L238.01 39.82L238 39.91L238 40L238 57L238 57.09L238.01 57.18L238.01 57.27L238.02 57.36L238.04 57.44L238.05 57.53L238.07 57.61L238.1 57.69L238.13 57.77L238.17 57.84L238.21 57.92L238.25 58L238.31 58.07L238.36 58.15L238.43 58.22L238.5 58.3L238.58 58.37L238.65 58.44L238.73 58.5L238.82 58.56L238.9 58.62L238.99 58.67L239.07 58.71L239.16 58.75L239.25 58.79L239.34 58.82L239.43 58.84L239.53 58.86L239.62 58.88L239.71 58.89L239.81 58.9L239.9 58.9L257.3 58.9L257.39 58.9L257.49 58.89L257.58 58.88L257.67 58.86L257.77 58.84L257.86 58.82L257.95 58.79L258.04 58.75L258.13 58.71L258.21 58.67L258.3 58.62L258.38 58.56L258.47 58.5L258.55 58.44L258.62 58.37L258.7 58.3L258.77 58.22L258.84 58.15L258.89 58.07L258.95 58L258.99 57.92L259.03 57.84L259.07 57.77L259.1 57.69L259.13 57.61L259.15 57.53L259.16 57.44L259.18 57.36L259.19 57.27L259.19 57.18L259.2 57.09L259.2 57L259.2 40L259.2 39.91L259.19 39.82L259.19 39.73L259.18 39.64L259.16 39.56L259.15 39.47L259.13 39.39L259.1 39.31L259.07 39.23L259.03 39.16L258.99 39.08L258.95 39L258.89 38.93L258.84 38.85L258.77 38.78L258.7 38.7L258.62 38.63L258.55 38.56L258.47 38.5L258.38 38.44L258.3 38.38L258.21 38.33L258.13 38.29L258.04 38.25L257.95 38.21L257.86 38.18L257.77 38.16L257.67 38.14L257.58 38.12L257.49 38.11L257.39 38.1L257.3 38.1L239.9 38.1L239.81 38.1Z" id="i1NUI2CGBg"></path><path d="M292.1 34C293.8 34 295.2 34.6 296.4 35.8C297.6 37 298.2 38.4 298.2 40C298.2 41.53 298.2 49.2 298.2 63L294.1 63C294.1 49.2 294.1 41.53 294.1 40C294.1 39.5 293.9 39.1 293.5 38.7C293.1 38.3 292.6 38.1 292.1 38.1C290.36 38.1 276.44 38.1 274.7 38.1C274.2 38.1 273.7 38.3 273.3 38.7C272.9 39.1 272.7 39.5 272.7 40C272.7 41.53 272.7 49.2 272.7 63L268.6 63L268.6 34C281.13 34 288.97 34 292.1 34Z" id="d3OhDa3nZ"></path><path d="M309.4 28.6C308.9 28.6 308.4 28.8 308 29.2C307.6 29.6 307.5 30 307.5 30.5C307.5 30.73 307.5 31.9 307.5 34L320 34L320 38.1L307.5 38.1L307.5 63L303.4 63C303.4 43.5 303.4 32.67 303.4 30.5C303.4 28.8 303.9 27.4 305.1 26.2C306.3 25.1 307.7 24.5 309.4 24.5C310.11 24.5 313.64 24.5 320 24.5L320 28.6C314.35 28.6 310.81 28.6 309.4 28.6Z" id="aPFAh3e4"></path><path d="M359.6 34.4L355.6 34.4C355.6 33.56 355.6 33.09 355.6 33C355.6 32.5 355.4 32 355 31.6C354.6 31.2 354.1 31 353.6 31C351.2 31 332 31 329.6 31C329.1 31 328.6 31.2 328.2 31.6C327.8 32 327.7 32.5 327.7 33C327.7 33.8 327.7 40.2 327.7 41C327.7 41.6 327.8 42 328.2 42.4C328.6 42.8 329.1 43 329.6 43C332 43 351.2 43 353.6 43C355.3 43 356.7 43.5 357.9 44.7C359 45.9 359.6 47.3 359.6 49C359.6 49.8 359.6 56.2 359.6 57C359.6 58.7 359 60.1 357.9 61.2C356.7 62.4 355.3 63 353.6 63C351.2 63 332 63 329.6 63C327.9 63 326.5 62.4 325.4 61.2C324.2 60.1 323.6 58.7 323.6 57C323.6 56.91 323.6 56.44 323.6 55.6L327.7 55.6C327.7 56.44 327.7 56.91 327.7 57C327.7 57.5 327.8 58 328.2 58.4C328.6 58.8 329.1 59 329.6 59C332 59 351.2 59 353.6 59C354.1 59 354.6 58.8 355 58.4C355.4 58 355.6 57.5 355.6 57C355.6 56.2 355.6 49.8 355.6 49C355.6 48.4 355.4 48 355 47.6C354.6 47.2 354.1 47 353.6 47C351.2 47 332 47 329.6 47C327.9 47 326.5 46.5 325.4 45.3C324.2 44.1 323.6 42.7 323.6 41C323.6 40.2 323.6 33.8 323.6 33C323.6 31.3 324.2 29.9 325.4 28.8C326.5 27.6 327.9 27 329.6 27C332 27 351.2 27 353.6 27C355.3 27 356.7 27.6 357.9 28.8C359 29.9 359.6 31.3 359.6 33C359.6 33.19 359.6 33.65 359.6 34.4Z" id="b2Gdgtu9QZ"></path><path d="M394.3 58.9L394.3 63C380.2 63 372.37 63 370.8 63C369.1 63 367.7 62.4 366.5 61.2C365.3 60 364.7 58.6 364.7 57C364.7 55.3 364.7 41.7 364.7 40C364.7 38.4 365.3 37 366.5 35.8C367.7 34.6 369.1 34 370.8 34C372.36 34 380.16 34 394.2 34L394.2 38.1C380.16 38.1 372.36 38.1 370.8 38.1C370.2 38.1 369.8 38.3 369.4 38.7C369 39.1 368.8 39.5 368.8 40C368.8 41.7 368.8 55.3 368.8 57C368.8 57.5 369 57.9 369.4 58.3C369.8 58.7 370.2 58.9 370.8 58.9C373.93 58.9 381.77 58.9 394.3 58.9Z" id="i18sDdFYP"></path><path d="M423.32 34.01L423.47 34.02L423.62 34.03L423.78 34.04L423.93 34.06L424.07 34.09L424.22 34.11L424.37 34.14L424.51 34.18L424.65 34.21L424.79 34.25L424.93 34.3L425.07 34.34L425.2 34.4L425.34 34.45L425.47 34.51L425.6 34.57L425.73 34.63L425.86 34.7L425.99 34.78L426.11 34.85L426.24 34.93L426.36 35.01L426.48 35.1L426.6 35.19L426.72 35.28L426.84 35.38L426.96 35.48L427.07 35.58L427.19 35.69L427.3 35.8L427.41 35.91L427.52 36.03L427.62 36.14L427.72 36.26L427.82 36.38L427.91 36.5L428 36.62L428.09 36.74L428.17 36.86L428.25 36.98L428.32 37.11L428.4 37.23L428.47 37.36L428.53 37.49L428.59 37.62L428.65 37.75L428.7 37.88L428.76 38.01L428.8 38.15L428.85 38.28L428.89 38.42L428.92 38.56L428.96 38.7L428.99 38.84L429.01 38.98L429.04 39.12L429.06 39.26L429.07 39.41L429.08 39.56L429.09 39.7L429.1 39.85L429.1 40L429.1 63L405.6 63L405.44 63L405.28 62.99L405.13 62.98L404.98 62.97L404.82 62.96L404.67 62.94L404.53 62.91L404.38 62.89L404.23 62.86L404.09 62.82L403.95 62.79L403.81 62.75L403.67 62.7L403.53 62.66L403.4 62.6L403.26 62.55L403.13 62.49L403 62.43L402.87 62.37L402.74 62.3L402.61 62.22L402.49 62.15L402.36 62.07L402.24 61.99L402.12 61.9L402 61.81L401.88 61.72L401.76 61.62L401.64 61.52L401.53 61.42L401.41 61.31L401.3 61.2L401.19 61.09L401.08 60.97L400.98 60.86L400.88 60.74L400.78 60.62L400.69 60.5L400.6 60.38L400.51 60.26L400.43 60.14L400.35 60.02L400.28 59.89L400.2 59.77L400.13 59.64L400.07 59.51L400.01 59.38L399.95 59.25L399.9 59.12L399.84 58.99L399.8 58.85L399.75 58.72L399.71 58.58L399.68 58.44L399.64 58.3L399.61 58.16L399.59 58.02L399.56 57.88L399.54 57.74L399.53 57.59L399.52 57.44L399.51 57.3L399.5 57.15L399.5 57L399.5 46.5L424.9 46.5L424.9 40L424.9 39.95L424.9 39.91L424.89 39.86L424.89 39.82L424.89 39.77L424.88 39.73L424.87 39.69L424.86 39.64L424.85 39.6L424.84 39.56L424.83 39.52L424.82 39.47L424.8 39.43L424.79 39.39L424.77 39.35L424.75 39.31L424.73 39.27L424.71 39.23L424.69 39.19L424.67 39.16L424.64 39.12L424.62 39.08L424.59 39.04L424.56 39L424.53 38.96L424.5 38.93L424.47 38.89L424.44 38.85L424.41 38.81L424.37 38.78L424.34 38.74L424.3 38.7L424.26 38.66L424.22 38.63L424.19 38.59L424.15 38.56L424.11 38.53L424.07 38.5L424.04 38.47L424 38.44L423.96 38.41L423.92 38.38L423.88 38.36L423.84 38.33L423.81 38.31L423.77 38.29L423.73 38.27L423.69 38.25L423.65 38.23L423.61 38.21L423.57 38.2L423.53 38.18L423.48 38.17L423.44 38.16L423.4 38.15L423.36 38.14L423.31 38.13L423.27 38.12L423.23 38.11L423.18 38.11L423.14 38.11L423.09 38.1L423.05 38.1L423 38.1L399.5 38.1L399.5 34L423 34L423.16 34L423.32 34.01ZM403.6 57L403.6 57.13L403.62 57.26L403.64 57.39L403.68 57.51L403.72 57.63L403.78 57.75L403.84 57.86L403.92 57.97L404 58.08L404.1 58.19L404.2 58.3L404.31 58.4L404.42 58.5L404.53 58.58L404.65 58.66L404.76 58.72L404.89 58.78L405.02 58.82L405.15 58.86L405.29 58.88L405.44 58.9L405.6 58.9L424.9 58.9L424.9 50.5L403.6 50.5L403.6 57Z" id="b6MEckyg3f"></path><path d="M457.8 34C459.5 34 460.9 34.6 462.1 35.8C463.3 37 463.9 38.4 463.9 40C463.9 41.53 463.9 49.2 463.9 63L459.8 63C459.8 49.2 459.8 41.53 459.8 40C459.8 39.5 459.6 39.1 459.2 38.7C458.8 38.3 458.3 38.1 457.8 38.1C456.06 38.1 442.14 38.1 440.4 38.1C439.9 38.1 439.4 38.3 439 38.7C438.6 39.1 438.4 39.5 438.4 40C438.4 41.53 438.4 49.2 438.4 63L434.3 63L434.3 34C446.83 34 454.67 34 457.8 34Z" id="dTcYk154a"></path></defs><g><g><use xlink:href="#c2hvxwaoH1" opacity="1" fill="#000000" fill-opacity="1"></use><g><use xlink:href="#c2hvxwaoH1" opacity="1" fill-opacity="0" stroke="#000000" stroke-width="1" stroke-opacity="0"></use></g></g><g><use xlink:href="#b41709cRb" opacity="1" fill="#000000" fill-opacity="0"></use><g><use xlink:href="#b41709cRb" opacity="1" fill-opacity="0" stroke="#000000" stroke-width="3.15" stroke-opacity="0"></use></g></g><g><use xlink:href="#cDN072agG" opacity="1" fill="#000000" fill-opacity="1"></use><g><use xlink:href="#cDN072agG" opacity="1" fill-opacity="0" stroke="#000000" stroke-width="1" stroke-opacity="0"></use></g></g><g><use xlink:href="#bd5mWcSp7" opacity="1" fill="#000000" fill-opacity="0"></use><g><use xlink:href="#bd5mWcSp7" opacity="1" fill-opacity="0" stroke="#000000" stroke-width="2.52" stroke-opacity="0"></use></g></g><g><use xlink:href="#bv3GUkkcj" opacity="1" fill="#d40000" fill-opacity="1"></use><g><use xlink:href="#bv3GUkkcj" opacity="1" fill-opacity="0" stroke="#000000" stroke-width="1" stroke-opacity="0"></use></g></g><g><use xlink:href="#aFudbKoPV" opacity="1" fill="#000000" fill-opacity="0"></use><g><use xlink:href="#aFudbKoPV" opacity="1" fill-opacity="0" stroke="#000000" stroke-width="0.27" stroke-opacity="0"></use></g></g><g><use xlink:href="#f5EEJmxjc" opacity="1" fill="#d40000" fill-opacity="1"></use><g><use xlink:href="#f5EEJmxjc" opacity="1" fill-opacity="0" stroke="#000000" stroke-width="1" stroke-opacity="0"></use></g></g><g><use xlink:href="#a4GZYS48cG" opacity="1" fill="#000000" fill-opacity="0"></use><g><use xlink:href="#a4GZYS48cG" opacity="1" fill-opacity="0" stroke="#000000" stroke-width="2.67" stroke-opacity="0"></use></g></g><g><use xlink:href="#f17YN14M7R" opacity="1" fill="#d40000" fill-opacity="1"></use><g><use xlink:href="#f17YN14M7R" opacity="1" fill-opacity="0" stroke="#000000" stroke-width="1" stroke-opacity="0"></use></g></g><g><use xlink:href="#a1L2h7904v" opacity="1" fill="#000000" fill-opacity="0"></use><g><use xlink:href="#a1L2h7904v" opacity="1" fill-opacity="0" stroke="#000000" stroke-width="2.5" stroke-opacity="0"></use></g></g><g><use xlink:href="#c1CkD3iQJY" opacity="1" fill="#757575" fill-opacity="1"></use><g><use xlink:href="#c1CkD3iQJY" opacity="1" fill-opacity="0" stroke="#000000" stroke-width="1" stroke-opacity="0"></use></g></g><g><use xlink:href="#aHPKAyd3j" opacity="1" fill="#757575" fill-opacity="1"></use><g><use xlink:href="#aHPKAyd3j" opacity="1" fill-opacity="0" stroke="#000000" stroke-width="1" stroke-opacity="0"></use></g></g><g><use xlink:href="#f5GGXtBbuK" opacity="1" fill="#757575" fill-opacity="1"></use><g><use xlink:href="#f5GGXtBbuK" opacity="1" fill-opacity="0" stroke="#000000" stroke-width="1" stroke-opacity="0"></use></g></g><g><use xlink:href="#asQJskzub" opacity="1" fill="#757575" fill-opacity="1"></use><g><use xlink:href="#asQJskzub" opacity="1" fill-opacity="0" stroke="#000000" stroke-width="0" stroke-opacity="0"></use></g></g><g><use xlink:href="#i1NUI2CGBg" opacity="1" fill="#757575" fill-opacity="1"></use><g><use xlink:href="#i1NUI2CGBg" opacity="1" fill-opacity="0" stroke="#000000" stroke-width="1" stroke-opacity="0"></use></g></g><g><use xlink:href="#d3OhDa3nZ" opacity="1" fill="#757575" fill-opacity="1"></use><g><use xlink:href="#d3OhDa3nZ" opacity="1" fill-opacity="0" stroke="#000000" stroke-width="1" stroke-opacity="0"></use></g></g><g><use xlink:href="#aPFAh3e4" opacity="1" fill="#757575" fill-opacity="1"></use><g><use xlink:href="#aPFAh3e4" opacity="1" fill-opacity="0" stroke="#000000" stroke-width="1" stroke-opacity="0"></use></g></g><g><use xlink:href="#b2Gdgtu9QZ" opacity="1" fill="#757575" fill-opacity="1"></use><g><use xlink:href="#b2Gdgtu9QZ" opacity="1" fill-opacity="0" stroke="#000000" stroke-width="1" stroke-opacity="0"></use></g></g><g><use xlink:href="#i18sDdFYP" opacity="1" fill="#757575" fill-opacity="1"></use><g><use xlink:href="#i18sDdFYP" opacity="1" fill-opacity="0" stroke="#000000" stroke-width="1" stroke-opacity="0"></use></g></g><g><use xlink:href="#b6MEckyg3f" opacity="1" fill="#757575" fill-opacity="1"></use><g><use xlink:href="#b6MEckyg3f" opacity="1" fill-opacity="0" stroke="#000000" stroke-width="1" stroke-opacity="0"></use></g></g><g><use xlink:href="#dTcYk154a" opacity="1" fill="#757575" fill-opacity="1"></use><g><use xlink:href="#dTcYk154a" opacity="1" fill-opacity="0" stroke="#000000" stroke-width="1" stroke-opacity="0"></use></g></g></g></svg>